# xmcd CD database file
#
# Track frame offsets:
#	182
#	12577
#	24402
#	35825
#	49695
#	58040
#	73035
#	86905
#	104892
#	115845
#	130692
#	153212
#	172812
#	184485
#	193297
#	205082
#	213502
#	223655
#	235067
#
# Disc length: 3364 seconds
#
# Revision: 7
# Processed by: cddbd v1.5.1PL0 Copyright (c) Steve Scherf et al.
# Submitted via: CDex 1.51
#
DISCID=1d0d2213
DTITLE=Götz Alsmann - gestatten ...
DYEAR=1997
DGENRE=Jazz
TTITLE0=Va Ba Ba Boom
TTITLE1=Kleiner weißer Schneemann
TTITLE2=Ich denk' an dich
TTITLE3=Du riechst so gut
TTITLE4=Rosetta
TTITLE5=Montevideo
TTITLE6=Ich träum so gern bei leiser Musik
TTITLE7=Besuch mich mal am Abend
TTITLE8=Der Mambo-Mann
TTITLE9=Gestern hast du 'ja' gesagt
TTITLE10=Meine Lippen sie küssen so heiß
TTITLE11=Siebzehn Jahr, blondes Haar
TTITLE12=Wenn's bei ihnen einmal klingelt
TTITLE13=Ach ich moechte ja so gerne
TTITLE14=Monster
TTITLE15=Stups
TTITLE16=Casino-Nächte
TTITLE17=Wenn dieses Lied erklingt
TTITLE18=Liebling, deine Augen lügen
EXTD=YEAR: 1997
EXTT0=
EXTT1=
EXTT2=
EXTT3=
EXTT4=
EXTT5=
EXTT6=
EXTT7=
EXTT8=
EXTT9=
EXTT10=
EXTT11=
EXTT12=
EXTT13=
EXTT14=
EXTT15=
EXTT16=
EXTT17=
EXTT18=
PLAYORDER=
